# xmcd
#
# Track frame offsets:
# 150
# 8151
# 28906
# 45553
# 63939
# 83768
# 102495
# 105043
# 123381
# 142463
# 160596
# 178521
# 182178
# 202889
# 221232
# 235311
#
# Disc length: 3372 seconds
#
#
# Revision: 0
# Processed by: cddbd v1.5.1PL0 Copyright (c) Steve Scherf et al.
# Submitted via: FreeRIP 2.52 
#
DISCID=da0d2a10
DTITLE=5 Footaz - Lifetime
DYEAR=1900
DGENRE=Rap
TTITLE0=Intro
TTITLE1=Lifetime
TTITLE2=Bang Baby Bang
TTITLE3=5 Reasons
TTITLE4=Ransom
TTITLE5=Heist 2
TTITLE6=Prayer
TTITLE7=Deception
TTITLE8=One Life feat. OUTLAWZ
TTITLE9=Too  hot
TTITLE10=Blow my mind
TTITLE11=Bar
TTITLE12=Unleash feat. XZIBIT and Sticky Fingaz
TTITLE13=Smashing feat. Warren G and Kurupt
TTITLE14=Who`s the baddest feat. Mc Lyte
TTITLE15=Dip feat. Nate Dogg
EXTD=
EXTT0=
EXTT1=
EXTT2=
EXTT3=
EXTT4=
EXTT5=
EXTT6=
EXTT7=
EXTT8=
EXTT9=
EXTT10=
EXTT11=
EXTT12=
EXTT13=
EXTT14=
EXTT15=
PLAYORDER=
